<?xml version="1.0" standalone="no"?>
<!DOCTYPE svg PUBLIC "-//W3C//DTD SVG 20010904//EN"
 "http://www.w3.org/TR/2001/REC-SVG-20010904/DTD/svg10.dtd">
<svg version="1.0" xmlns="http://www.w3.org/2000/svg"
 width="32.000000pt" height="32.000000pt" viewBox="0 0 32.000000 32.000000"
 preserveAspectRatio="xMidYMid meet">

<g transform="translate(0.000000,32.000000) scale(0.100000,-0.100000)"
fill="#000000" stroke="none">
<path d="M210 261 c0 -17 18 -21 24 -6 3 9 0 15 -9 15 -8 0 -15 -4 -15 -9z"/>
<path d="M58 195 c-27 -29 -48 -56 -48 -59 0 -19 37 -1 65 32 l33 37 25 -23
24 -23 27 31 c14 17 26 35 26 39 0 20 -16 19 -37 -1 l-23 -21 -22 20 -23 21
-47 -53z"/>
<path d="M230 187 c0 -19 43 -57 65 -57 16 0 13 6 -15 35 -36 37 -50 43 -50
22z"/>
<path d="M94 138 c-7 -11 47 -68 65 -68 5 0 20 15 35 34 30 40 17 60 -18 27
l-23 -21 -18 20 c-21 23 -31 25 -41 8z"/>
</g>
</svg>
